<svg id="visual" viewBox="0 0 960 540" width="960" height="540" xmlns="http://www.w3.org/2000/svg" xmlns:xlink="http://www.w3.org/1999/xlink" version="1.1"><rect x="0" y="0" width="960" height="540" fill="#001220"></rect><defs><linearGradient id="grad1_0" x1="43.8%" y1="0%" x2="100%" y2="100%"><stop offset="14.444444444444446%" stop-color="#fbae3c" stop-opacity="1"></stop><stop offset="85.55555555555554%" stop-color="#fbae3c" stop-opacity="1"></stop></linearGradient></defs><defs><linearGradient id="grad1_1" x1="43.8%" y1="0%" x2="100%" y2="100%"><stop offset="14.444444444444446%" stop-color="#fbae3c" stop-opacity="1"></stop><stop offset="85.55555555555554%" stop-color="#f48350" stop-opacity="1"></stop></linearGradient></defs><defs><linearGradient id="grad1_2" x1="43.8%" y1="0%" x2="100%" y2="100%"><stop offset="14.444444444444446%" stop-color="#d96162" stop-opacity="1"></stop><stop offset="85.55555555555554%" stop-color="#f48350" stop-opacity="1"></stop></linearGradient></defs><defs><linearGradient id="grad1_3" x1="43.8%" y1="0%" x2="100%" y2="100%"><stop offset="14.444444444444446%" stop-color="#d96162" stop-opacity="1"></stop><stop offset="85.55555555555554%" stop-color="#af4b6d" stop-opacity="1"></stop></linearGradient></defs><defs><linearGradient id="grad1_4" x1="43.8%" y1="0%" x2="100%" y2="100%"><stop offset="14.444444444444446%" stop-color="#7c3e6b" stop-opacity="1"></stop><stop offset="85.55555555555554%" stop-color="#af4b6d" stop-opacity="1"></stop></linearGradient></defs><defs><linearGradient id="grad1_5" x1="43.8%" y1="0%" x2="100%" y2="100%"><stop offset="14.444444444444446%" stop-color="#7c3e6b" stop-opacity="1"></stop><stop offset="85.55555555555554%" stop-color="#49335c" stop-opacity="1"></stop></linearGradient></defs><defs><linearGradient id="grad1_6" x1="43.8%" y1="0%" x2="100%" y2="100%"><stop offset="14.444444444444446%" stop-color="#1d2540" stop-opacity="1"></stop><stop offset="85.55555555555554%" stop-color="#49335c" stop-opacity="1"></stop></linearGradient></defs><defs><linearGradient id="grad1_7" x1="43.8%" y1="0%" x2="100%" y2="100%"><stop offset="14.444444444444446%" stop-color="#1d2540" stop-opacity="1"></stop><stop offset="85.55555555555554%" stop-color="#001220" stop-opacity="1"></stop></linearGradient></defs><defs><linearGradient id="grad2_0" x1="0%" y1="0%" x2="56.3%" y2="100%"><stop offset="14.444444444444446%" stop-color="#fbae3c" stop-opacity="1"></stop><stop offset="85.55555555555554%" stop-color="#fbae3c" stop-opacity="1"></stop></linearGradient></defs><defs><linearGradient id="grad2_1" x1="0%" y1="0%" x2="56.3%" y2="100%"><stop offset="14.444444444444446%" stop-color="#f48350" stop-opacity="1"></stop><stop offset="85.55555555555554%" stop-color="#fbae3c" stop-opacity="1"></stop></linearGradient></defs><defs><linearGradient id="grad2_2" x1="0%" y1="0%" x2="56.3%" y2="100%"><stop offset="14.444444444444446%" stop-color="#f48350" stop-opacity="1"></stop><stop offset="85.55555555555554%" stop-color="#d96162" stop-opacity="1"></stop></linearGradient></defs><defs><linearGradient id="grad2_3" x1="0%" y1="0%" x2="56.3%" y2="100%"><stop offset="14.444444444444446%" stop-color="#af4b6d" stop-opacity="1"></stop><stop offset="85.55555555555554%" stop-color="#d96162" stop-opacity="1"></stop></linearGradient></defs><defs><linearGradient id="grad2_4" x1="0%" y1="0%" x2="56.3%" y2="100%"><stop offset="14.444444444444446%" stop-color="#af4b6d" stop-opacity="1"></stop><stop offset="85.55555555555554%" stop-color="#7c3e6b" stop-opacity="1"></stop></linearGradient></defs><defs><linearGradient id="grad2_5" x1="0%" y1="0%" x2="56.3%" y2="100%"><stop offset="14.444444444444446%" stop-color="#49335c" stop-opacity="1"></stop><stop offset="85.55555555555554%" stop-color="#7c3e6b" stop-opacity="1"></stop></linearGradient></defs><defs><linearGradient id="grad2_6" x1="0%" y1="0%" x2="56.3%" y2="100%"><stop offset="14.444444444444446%" stop-color="#49335c" stop-opacity="1"></stop><stop offset="85.55555555555554%" stop-color="#1d2540" stop-opacity="1"></stop></linearGradient></defs><defs><linearGradient id="grad2_7" x1="0%" y1="0%" x2="56.3%" y2="100%"><stop offset="14.444444444444446%" stop-color="#001220" stop-opacity="1"></stop><stop offset="85.55555555555554%" stop-color="#1d2540" stop-opacity="1"></stop></linearGradient></defs><g transform="translate(960, 0)"><path d="M0 378C-55.4 376.1 -110.7 374.3 -142 342.8C-173.2 311.3 -180.3 250.2 -216.4 216.4C-252.4 182.6 -317.5 176.2 -349.2 144.7C-381 113.1 -379.5 56.6 -378 0L0 0Z" fill="#0c1c30"></path><path d="M0 330.8C-48.4 329.1 -96.9 327.5 -124.2 299.9C-151.6 272.4 -157.8 218.9 -189.3 189.3C-220.9 159.8 -277.8 154.1 -305.6 126.6C-333.4 99 -332.1 49.5 -330.7 0L0 0Z" fill="#312c4f"></path><path d="M0 283.5C-41.5 282.1 -83.1 280.7 -106.5 257.1C-129.9 233.4 -135.2 187.6 -162.3 162.3C-189.3 136.9 -238.1 132.1 -261.9 108.5C-285.7 84.9 -284.6 42.4 -283.5 0L0 0Z" fill="#623965"></path><path d="M0 236.3C-34.6 235.1 -69.2 233.9 -88.7 214.2C-108.3 194.5 -112.7 156.3 -135.2 135.2C-157.8 114.1 -198.4 110.1 -218.3 90.4C-238.1 70.7 -237.2 35.4 -236.2 0L0 0Z" fill="#96446e"></path><path d="M0 189C-27.7 188.1 -55.4 187.1 -71 171.4C-86.6 155.6 -90.2 125.1 -108.2 108.2C-126.2 91.3 -158.7 88.1 -174.6 72.3C-190.5 56.6 -189.7 28.3 -189 0L0 0Z" fill="#c55469"></path><path d="M0 141.8C-20.8 141 -41.5 140.3 -53.2 128.5C-65 116.7 -67.6 93.8 -81.1 81.1C-94.7 68.5 -119 66.1 -131 54.2C-142.9 42.4 -142.3 21.2 -141.7 0L0 0Z" fill="#e9705a"></path><path d="M0 94.5C-13.8 94 -27.7 93.6 -35.5 85.7C-43.3 77.8 -45.1 62.5 -54.1 54.1C-63.1 45.6 -79.4 44 -87.3 36.2C-95.2 28.3 -94.9 14.1 -94.5 0L0 0Z" fill="#fa9845"></path><path d="M0 47.3C-6.9 47 -13.8 46.8 -17.7 42.8C-21.7 38.9 -22.5 31.3 -27 27C-31.6 22.8 -39.7 22 -43.7 18.1C-47.6 14.1 -47.4 7.1 -47.2 0L0 0Z" fill="#fbae3c"></path></g><g transform="translate(0, 540)"><path d="M0 -378C47.9 -372 95.9 -366 144.7 -349.2C193.5 -332.4 243.1 -304.8 263 -263C283 -221.2 273.1 -165.2 287.3 -119C301.5 -72.8 339.8 -36.4 378 0L0 0Z" fill="#0c1c30"></path><path d="M0 -330.7C41.9 -325.5 83.9 -320.3 126.6 -305.6C169.3 -290.9 212.7 -266.7 230.2 -230.2C247.6 -193.6 239 -144.6 251.4 -104.1C263.8 -63.7 297.3 -31.9 330.8 0L0 0Z" fill="#312c4f"></path><path d="M0 -283.5C35.9 -279 71.9 -274.5 108.5 -261.9C145.1 -249.3 182.3 -228.6 197.3 -197.3C212.2 -165.9 204.8 -123.9 215.5 -89.3C226.1 -54.6 254.8 -27.3 283.5 0L0 0Z" fill="#623965"></path><path d="M0 -236.2C30 -232.5 59.9 -228.8 90.4 -218.3C120.9 -207.8 152 -190.5 164.4 -164.4C176.9 -138.3 170.7 -103.3 179.6 -74.4C188.5 -45.5 212.4 -22.8 236.3 0L0 0Z" fill="#96446e"></path><path d="M0 -189C24 -186 47.9 -183 72.3 -174.6C96.7 -166.2 121.6 -152.4 131.5 -131.5C141.5 -110.6 136.6 -82.6 143.7 -59.5C150.8 -36.4 169.9 -18.2 189 0L0 0Z" fill="#c55469"></path><path d="M0 -141.7C18 -139.5 35.9 -137.3 54.2 -131C72.5 -124.7 91.2 -114.3 98.6 -98.6C106.1 -83 102.4 -62 107.7 -44.6C113.1 -27.3 127.4 -13.7 141.8 0L0 0Z" fill="#e9705a"></path><path d="M0 -94.5C12 -93 24 -91.5 36.2 -87.3C48.4 -83.1 60.8 -76.2 65.8 -65.8C70.7 -55.3 68.3 -41.3 71.8 -29.8C75.4 -18.2 84.9 -9.1 94.5 0L0 0Z" fill="#fa9845"></path><path d="M0 -47.2C6 -46.5 12 -45.8 18.1 -43.7C24.2 -41.6 30.4 -38.1 32.9 -32.9C35.4 -27.7 34.1 -20.7 35.9 -14.9C37.7 -9.1 42.5 -4.6 47.3 0L0 0Z" fill="#fbae3c"></path></g></svg>
