<svg id="visual" viewBox="0 0 900 600" width="900" height="600" xmlns="http://www.w3.org/2000/svg" xmlns:xlink="http://www.w3.org/1999/xlink" version="1.1"><rect x="0" y="0" width="900" height="600" fill="#FFFFFF"></rect><defs><linearGradient id="grad1_0" x1="33.3%" y1="0%" x2="100%" y2="100%"><stop offset="20%" stop-color="#000000" stop-opacity="1"></stop><stop offset="80%" stop-color="#000000" stop-opacity="1"></stop></linearGradient></defs><defs><linearGradient id="grad1_1" x1="33.3%" y1="0%" x2="100%" y2="100%"><stop offset="20%" stop-color="#000000" stop-opacity="1"></stop><stop offset="80%" stop-color="#242424" stop-opacity="1"></stop></linearGradient></defs><defs><linearGradient id="grad1_2" x1="33.3%" y1="0%" x2="100%" y2="100%"><stop offset="20%" stop-color="#434343" stop-opacity="1"></stop><stop offset="80%" stop-color="#242424" stop-opacity="1"></stop></linearGradient></defs><defs><linearGradient id="grad1_3" x1="33.3%" y1="0%" x2="100%" y2="100%"><stop offset="20%" stop-color="#434343" stop-opacity="1"></stop><stop offset="80%" stop-color="#656565" stop-opacity="1"></stop></linearGradient></defs><defs><linearGradient id="grad1_4" x1="33.3%" y1="0%" x2="100%" y2="100%"><stop offset="20%" stop-color="#898989" stop-opacity="1"></stop><stop offset="80%" stop-color="#656565" stop-opacity="1"></stop></linearGradient></defs><defs><linearGradient id="grad1_5" x1="33.3%" y1="0%" x2="100%" y2="100%"><stop offset="20%" stop-color="#898989" stop-opacity="1"></stop><stop offset="80%" stop-color="#afafaf" stop-opacity="1"></stop></linearGradient></defs><defs><linearGradient id="grad1_6" x1="33.3%" y1="0%" x2="100%" y2="100%"><stop offset="20%" stop-color="#d6d6d6" stop-opacity="1"></stop><stop offset="80%" stop-color="#afafaf" stop-opacity="1"></stop></linearGradient></defs><defs><linearGradient id="grad1_7" x1="33.3%" y1="0%" x2="100%" y2="100%"><stop offset="20%" stop-color="#d6d6d6" stop-opacity="1"></stop><stop offset="80%" stop-color="#ffffff" stop-opacity="1"></stop></linearGradient></defs><defs><linearGradient id="grad2_0" x1="0%" y1="0%" x2="66.7%" y2="100%"><stop offset="20%" stop-color="#000000" stop-opacity="1"></stop><stop offset="80%" stop-color="#000000" stop-opacity="1"></stop></linearGradient></defs><defs><linearGradient id="grad2_1" x1="0%" y1="0%" x2="66.7%" y2="100%"><stop offset="20%" stop-color="#242424" stop-opacity="1"></stop><stop offset="80%" stop-color="#000000" stop-opacity="1"></stop></linearGradient></defs><defs><linearGradient id="grad2_2" x1="0%" y1="0%" x2="66.7%" y2="100%"><stop offset="20%" stop-color="#242424" stop-opacity="1"></stop><stop offset="80%" stop-color="#434343" stop-opacity="1"></stop></linearGradient></defs><defs><linearGradient id="grad2_3" x1="0%" y1="0%" x2="66.7%" y2="100%"><stop offset="20%" stop-color="#656565" stop-opacity="1"></stop><stop offset="80%" stop-color="#434343" stop-opacity="1"></stop></linearGradient></defs><defs><linearGradient id="grad2_4" x1="0%" y1="0%" x2="66.7%" y2="100%"><stop offset="20%" stop-color="#656565" stop-opacity="1"></stop><stop offset="80%" stop-color="#898989" stop-opacity="1"></stop></linearGradient></defs><defs><linearGradient id="grad2_5" x1="0%" y1="0%" x2="66.7%" y2="100%"><stop offset="20%" stop-color="#afafaf" stop-opacity="1"></stop><stop offset="80%" stop-color="#898989" stop-opacity="1"></stop></linearGradient></defs><defs><linearGradient id="grad2_6" x1="0%" y1="0%" x2="66.7%" y2="100%"><stop offset="20%" stop-color="#afafaf" stop-opacity="1"></stop><stop offset="80%" stop-color="#d6d6d6" stop-opacity="1"></stop></linearGradient></defs><defs><linearGradient id="grad2_7" x1="0%" y1="0%" x2="66.7%" y2="100%"><stop offset="20%" stop-color="#ffffff" stop-opacity="1"></stop><stop offset="80%" stop-color="#d6d6d6" stop-opacity="1"></stop></linearGradient></defs><g transform="translate(900, 0)"><path d="M0 486.7C-41.5 430.1 -83.1 373.5 -148.9 359.4C-214.6 345.2 -304.7 373.6 -344.2 344.2C-383.7 314.8 -372.7 227.7 -388 160.7C-403.4 93.7 -445.1 46.9 -486.7 0L0 0Z" fill="#eaeaea"></path><path d="M0 425.9C-36.3 376.4 -72.7 326.8 -130.3 314.5C-187.8 302.1 -266.6 326.9 -301.2 301.2C-335.7 275.4 -326.1 199.2 -339.5 140.6C-352.9 82 -389.4 41 -425.9 0L0 0Z" fill="#c2c2c2"></path><path d="M0 365.1C-31.2 322.6 -62.3 280.1 -111.6 269.5C-161 258.9 -228.5 280.2 -258.1 258.1C-287.8 236.1 -279.5 170.8 -291 120.5C-302.5 70.3 -333.8 35.2 -365.1 0L0 0Z" fill="#9c9c9c"></path><path d="M0 304.2C-26 268.8 -51.9 233.5 -93 224.6C-134.2 215.8 -190.4 233.5 -215.1 215.1C-239.8 196.7 -232.9 142.3 -242.5 100.5C-252.1 58.6 -278.2 29.3 -304.2 0L0 0Z" fill="#777777"></path><path d="M0 243.4C-20.8 215.1 -41.5 186.8 -74.4 179.7C-107.3 172.6 -152.3 186.8 -172.1 172.1C-191.8 157.4 -186.3 113.9 -194 80.4C-201.7 46.9 -222.5 23.4 -243.4 0L0 0Z" fill="#545454"></path><path d="M0 182.5C-15.6 161.3 -31.2 140.1 -55.8 134.8C-80.5 129.5 -114.3 140.1 -129.1 129.1C-143.9 118 -139.8 85.4 -145.5 60.3C-151.3 35.2 -166.9 17.6 -182.5 0L0 0Z" fill="#333333"></path><path d="M0 121.7C-10.4 107.5 -20.8 93.4 -37.2 89.8C-53.7 86.3 -76.2 93.4 -86 86C-95.9 78.7 -93.2 56.9 -97 40.2C-100.8 23.4 -111.3 11.7 -121.7 0L0 0Z" fill="#161616"></path><path d="M0 60.8C-5.2 53.8 -10.4 46.7 -18.6 44.9C-26.8 43.2 -38.1 46.7 -43 43C-48 39.3 -46.6 28.5 -48.5 20.1C-50.4 11.7 -55.6 5.9 -60.8 0L0 0Z" fill="#000000"></path></g><g transform="translate(0, 600)"><path d="M0 -486.7C48.8 -447.1 97.6 -407.4 161.9 -390.8C226.1 -374.2 305.8 -380.6 344.2 -344.2C382.5 -307.8 379.5 -228.7 396.3 -164.2C413.2 -99.7 450 -49.8 486.7 0L0 0Z" fill="#eaeaea"></path><path d="M0 -425.9C42.7 -391.2 85.4 -356.5 141.6 -342C197.9 -327.4 267.6 -333 301.2 -301.2C334.7 -269.3 332 -200.1 346.8 -143.6C361.6 -87.2 393.7 -43.6 425.9 0L0 0Z" fill="#c2c2c2"></path><path d="M0 -365.1C36.6 -335.3 73.2 -305.6 121.4 -293.1C169.6 -280.6 229.4 -285.4 258.1 -258.1C286.9 -230.9 284.6 -171.5 297.3 -123.1C309.9 -74.8 337.5 -37.4 365.1 0L0 0Z" fill="#9c9c9c"></path><path d="M0 -304.2C30.5 -279.4 61 -254.6 101.2 -244.3C141.3 -233.9 191.2 -237.9 215.1 -215.1C239.1 -192.4 237.2 -142.9 247.7 -102.6C258.3 -62.3 281.2 -31.1 304.2 0L0 0Z" fill="#777777"></path><path d="M0 -243.4C24.4 -223.5 48.8 -203.7 80.9 -195.4C113.1 -187.1 152.9 -190.3 172.1 -172.1C191.3 -153.9 189.7 -114.3 198.2 -82.1C206.6 -49.8 225 -24.9 243.4 0L0 0Z" fill="#545454"></path><path d="M0 -182.5C18.3 -167.7 36.6 -152.8 60.7 -146.6C84.8 -140.3 114.7 -142.7 129.1 -129.1C143.4 -115.4 142.3 -85.7 148.6 -61.6C155 -37.4 168.7 -18.7 182.5 0L0 0Z" fill="#333333"></path><path d="M0 -121.7C12.2 -111.8 24.4 -101.9 40.5 -97.7C56.5 -93.5 76.5 -95.1 86 -86C95.6 -77 94.9 -57.2 99.1 -41C103.3 -24.9 112.5 -12.5 121.7 0L0 0Z" fill="#161616"></path><path d="M0 -60.8C6.1 -55.9 12.2 -50.9 20.2 -48.9C28.3 -46.8 38.2 -47.6 43 -43C47.8 -38.5 47.4 -28.6 49.5 -20.5C51.7 -12.5 56.2 -6.2 60.8 0L0 0Z" fill="#000000"></path></g></svg>
