<svg id="visual" viewBox="0 0 540 960" width="540" height="960" xmlns="http://www.w3.org/2000/svg" xmlns:xlink="http://www.w3.org/1999/xlink" version="1.1"><rect x="0" y="0" width="540" height="960" fill="#001220"></rect><defs><linearGradient id="grad1_0" x1="0%" y1="0%" x2="100%" y2="100%"><stop offset="30%" stop-color="#fbae3c" stop-opacity="1"></stop><stop offset="70%" stop-color="#fbae3c" stop-opacity="1"></stop></linearGradient></defs><defs><linearGradient id="grad1_1" x1="0%" y1="0%" x2="100%" y2="100%"><stop offset="30%" stop-color="#fbae3c" stop-opacity="1"></stop><stop offset="70%" stop-color="#f48350" stop-opacity="1"></stop></linearGradient></defs><defs><linearGradient id="grad1_2" x1="0%" y1="0%" x2="100%" y2="100%"><stop offset="30%" stop-color="#d96162" stop-opacity="1"></stop><stop offset="70%" stop-color="#f48350" stop-opacity="1"></stop></linearGradient></defs><defs><linearGradient id="grad1_3" x1="0%" y1="0%" x2="100%" y2="100%"><stop offset="30%" stop-color="#d96162" stop-opacity="1"></stop><stop offset="70%" stop-color="#af4b6d" stop-opacity="1"></stop></linearGradient></defs><defs><linearGradient id="grad1_4" x1="0%" y1="0%" x2="100%" y2="100%"><stop offset="30%" stop-color="#7c3e6b" stop-opacity="1"></stop><stop offset="70%" stop-color="#af4b6d" stop-opacity="1"></stop></linearGradient></defs><defs><linearGradient id="grad1_5" x1="0%" y1="0%" x2="100%" y2="100%"><stop offset="30%" stop-color="#7c3e6b" stop-opacity="1"></stop><stop offset="70%" stop-color="#49335c" stop-opacity="1"></stop></linearGradient></defs><defs><linearGradient id="grad1_6" x1="0%" y1="0%" x2="100%" y2="100%"><stop offset="30%" stop-color="#1d2540" stop-opacity="1"></stop><stop offset="70%" stop-color="#49335c" stop-opacity="1"></stop></linearGradient></defs><defs><linearGradient id="grad1_7" x1="0%" y1="0%" x2="100%" y2="100%"><stop offset="30%" stop-color="#1d2540" stop-opacity="1"></stop><stop offset="70%" stop-color="#001220" stop-opacity="1"></stop></linearGradient></defs><defs><linearGradient id="grad2_0" x1="0%" y1="0%" x2="100%" y2="100%"><stop offset="30%" stop-color="#fbae3c" stop-opacity="1"></stop><stop offset="70%" stop-color="#fbae3c" stop-opacity="1"></stop></linearGradient></defs><defs><linearGradient id="grad2_1" x1="0%" y1="0%" x2="100%" y2="100%"><stop offset="30%" stop-color="#f48350" stop-opacity="1"></stop><stop offset="70%" stop-color="#fbae3c" stop-opacity="1"></stop></linearGradient></defs><defs><linearGradient id="grad2_2" x1="0%" y1="0%" x2="100%" y2="100%"><stop offset="30%" stop-color="#f48350" stop-opacity="1"></stop><stop offset="70%" stop-color="#d96162" stop-opacity="1"></stop></linearGradient></defs><defs><linearGradient id="grad2_3" x1="0%" y1="0%" x2="100%" y2="100%"><stop offset="30%" stop-color="#af4b6d" stop-opacity="1"></stop><stop offset="70%" stop-color="#d96162" stop-opacity="1"></stop></linearGradient></defs><defs><linearGradient id="grad2_4" x1="0%" y1="0%" x2="100%" y2="100%"><stop offset="30%" stop-color="#af4b6d" stop-opacity="1"></stop><stop offset="70%" stop-color="#7c3e6b" stop-opacity="1"></stop></linearGradient></defs><defs><linearGradient id="grad2_5" x1="0%" y1="0%" x2="100%" y2="100%"><stop offset="30%" stop-color="#49335c" stop-opacity="1"></stop><stop offset="70%" stop-color="#7c3e6b" stop-opacity="1"></stop></linearGradient></defs><defs><linearGradient id="grad2_6" x1="0%" y1="0%" x2="100%" y2="100%"><stop offset="30%" stop-color="#49335c" stop-opacity="1"></stop><stop offset="70%" stop-color="#1d2540" stop-opacity="1"></stop></linearGradient></defs><defs><linearGradient id="grad2_7" x1="0%" y1="0%" x2="100%" y2="100%"><stop offset="30%" stop-color="#001220" stop-opacity="1"></stop><stop offset="70%" stop-color="#1d2540" stop-opacity="1"></stop></linearGradient></defs><g transform="translate(540, 0)"><path d="M0 486C-57.3 466.2 -114.7 446.5 -176.8 426.8C-238.9 407.2 -305.8 387.7 -343.7 343.7C-381.5 299.6 -390.4 230.9 -409.3 169.5C-428.2 108.2 -457.1 54.1 -486 0L0 0Z" fill="#0c1c30"></path><path d="M0 425.3C-50.2 407.9 -100.4 390.6 -154.7 373.5C-209 356.3 -267.6 339.3 -300.7 300.7C-333.8 262.1 -341.6 202 -358.1 148.3C-374.6 94.6 -399.9 47.3 -425.2 0L0 0Z" fill="#312c4f"></path><path d="M0 364.5C-43 349.7 -86 334.8 -132.6 320.1C-179.2 305.4 -229.3 290.8 -257.7 257.7C-286.1 224.7 -292.8 173.2 -307 127.1C-321.1 81.1 -342.8 40.6 -364.5 0L0 0Z" fill="#623965"></path><path d="M0 303.8C-35.8 291.4 -71.7 279 -110.5 266.8C-149.3 254.5 -191.1 242.3 -214.8 214.8C-238.5 187.2 -244 144.3 -255.8 106C-267.6 67.6 -285.7 33.8 -303.7 0L0 0Z" fill="#96446e"></path><path d="M0 243C-28.7 233.1 -57.3 223.2 -88.4 213.4C-119.5 203.6 -152.9 193.9 -171.8 171.8C-190.8 149.8 -195.2 115.5 -204.6 84.8C-214.1 54.1 -228.5 27 -243 0L0 0Z" fill="#c55469"></path><path d="M0 182.3C-21.5 174.8 -43 167.4 -66.3 160.1C-89.6 152.7 -114.7 145.4 -128.9 128.9C-143.1 112.3 -146.4 86.6 -153.5 63.6C-160.6 40.6 -171.4 20.3 -182.2 0L0 0Z" fill="#e9705a"></path><path d="M0 121.5C-14.3 116.6 -28.7 111.6 -44.2 106.7C-59.7 101.8 -76.4 96.9 -85.9 85.9C-95.4 74.9 -97.6 57.7 -102.3 42.4C-107 27 -114.3 13.5 -121.5 0L0 0Z" fill="#fa9845"></path><path d="M0 60.8C-7.2 58.3 -14.3 55.8 -22.1 53.4C-29.9 50.9 -38.2 48.5 -43 43C-47.7 37.4 -48.8 28.9 -51.2 21.2C-53.5 13.5 -57.1 6.8 -60.7 0L0 0Z" fill="#fbae3c"></path></g><g transform="translate(0, 960)"><path d="M0 -486C52.4 -446.2 104.7 -406.4 158 -381.6C211.4 -356.7 265.7 -346.8 318.2 -318.2C370.7 -289.6 421.3 -242.1 449 -186C476.7 -129.8 481.3 -64.9 486 0L0 0Z" fill="#0c1c30"></path><path d="M0 -425.2C45.8 -390.4 91.6 -355.6 138.3 -333.9C185 -312.1 232.5 -303.5 278.4 -278.4C324.4 -253.4 368.7 -211.9 392.9 -162.7C417.1 -113.6 421.2 -56.8 425.3 0L0 0Z" fill="#312c4f"></path><path d="M0 -364.5C39.3 -334.7 78.5 -304.8 118.5 -286.2C158.5 -267.5 199.3 -260.1 238.6 -238.6C278 -217.2 316 -181.6 336.8 -139.5C357.5 -97.4 361 -48.7 364.5 0L0 0Z" fill="#623965"></path><path d="M0 -303.7C32.7 -278.9 65.4 -254 98.8 -238.5C132.1 -223 166.1 -216.8 198.9 -198.9C231.7 -181 263.3 -151.3 280.6 -116.2C297.9 -81.1 300.8 -40.6 303.8 0L0 0Z" fill="#96446e"></path><path d="M0 -243C26.2 -223.1 52.4 -203.2 79 -190.8C105.7 -178.4 132.9 -173.4 159.1 -159.1C185.3 -144.8 210.7 -121.1 224.5 -93C238.3 -64.9 240.7 -32.5 243 0L0 0Z" fill="#c55469"></path><path d="M0 -182.2C19.6 -167.3 39.3 -152.4 59.3 -143.1C79.3 -133.8 99.6 -130.1 119.3 -119.3C139 -108.6 158 -90.8 168.4 -69.7C178.8 -48.7 180.5 -24.3 182.3 0L0 0Z" fill="#e9705a"></path><path d="M0 -121.5C13.1 -111.6 26.2 -101.6 39.5 -95.4C52.8 -89.2 66.4 -86.7 79.5 -79.5C92.7 -72.4 105.3 -60.5 112.3 -46.5C119.2 -32.5 120.3 -16.2 121.5 0L0 0Z" fill="#fa9845"></path><path d="M0 -60.7C6.5 -55.8 13.1 -50.8 19.8 -47.7C26.4 -44.6 33.2 -43.4 39.8 -39.8C46.3 -36.2 52.7 -30.3 56.1 -23.2C59.6 -16.2 60.2 -8.1 60.8 0L0 0Z" fill="#fbae3c"></path></g></svg>
